<svg width="120" height="120" viewBox="0 0 120 120" xmlns="http://www.w3.org/2000/svg">
  <!-- Shield Background with Gradient -->
  <defs>
    <linearGradient id="shieldGradient" x1="0%" y1="0%" x2="100%" y2="100%">
      <stop offset="0%" style="stop-color:#1976d2;stop-opacity:1" />
      <stop offset="50%" style="stop-color:#42a5f5;stop-opacity:1" />
      <stop offset="100%" style="stop-color:#64b5f6;stop-opacity:1" />
    </linearGradient>
    <linearGradient id="eyeGradient" x1="0%" y1="0%" x2="100%" y2="100%">
      <stop offset="0%" style="stop-color:#ffffff;stop-opacity:1" />
      <stop offset="100%" style="stop-color:#e3f2fd;stop-opacity:1" />
    </linearGradient>
    <filter id="glow">
      <feGaussianBlur stdDeviation="3" result="coloredBlur"/>
      <feMerge> 
        <feMergeNode in="coloredBlur"/>
        <feMergeNode in="SourceGraphic"/>
      </feMerge>
    </filter>
  </defs>
  
  <!-- Shield Shape -->
  <path d="M60 10 L100 25 L100 65 C100 85 80 95 60 110 C40 95 20 85 20 65 L20 25 Z" 
        fill="url(#shieldGradient)" 
        stroke="#ffffff" 
        stroke-width="2"
        filter="url(#glow)"/>
  
  <!-- Shield Border Highlight -->
  <path d="M60 10 L100 25 L100 65 C100 85 80 95 60 110 C40 95 20 85 20 65 L20 25 Z" 
        fill="none" 
        stroke="#ffffff" 
        stroke-width="1.5" 
        opacity="0.3"/>
  
  <!-- Eye Container -->
  <circle cx="60" cy="60" r="25" fill="url(#eyeGradient)" stroke="#1976d2" stroke-width="2"/>
  
  <!-- Eye Iris -->
  <circle cx="60" cy="60" r="15" fill="#1976d2" stroke="#ffffff" stroke-width="1"/>
  
  <!-- Eye Pupil -->
  <circle cx="60" cy="60" r="8" fill="#0d47a1"/>
  
  <!-- Eye Highlight -->
  <circle cx="55" cy="55" r="3" fill="#ffffff" opacity="0.8"/>
  
  <!-- Shield Cross Pattern -->
  <path d="M60 35 L60 45 M55 40 L65 40" stroke="#ffffff" stroke-width="1.5" opacity="0.4"/>
  <path d="M60 75 L60 85 M55 80 L65 80" stroke="#ffffff" stroke-width="1.5" opacity="0.4"/>
  
  <!-- Decorative Elements -->
  <circle cx="35" cy="35" r="2" fill="#ffffff" opacity="0.6"/>
  <circle cx="85" cy="35" r="2" fill="#ffffff" opacity="0.6"/>
  <circle cx="35" cy="85" r="2" fill="#ffffff" opacity="0.6"/>
  <circle cx="85" cy="85" r="2" fill="#ffffff" opacity="0.6"/>
</svg>